<svg xmlns="http://www.w3.org/2000/svg" viewBox="0 0 192 192" fill="none">
  <rect width="192" height="192" rx="24" fill="#3b82f6"/>
  <circle cx="96" cy="96" r="60" fill="white" opacity="0.2"/>
  <path d="M96 46C78.3 46 64 60.3 64 78C64 95.7 78.3 110 96 110C113.7 110 128 95.7 128 78C128 60.3 113.7 46 96 46ZM96 96C87.2 96 80 88.8 80 80C80 71.2 87.2 64 96 64C104.8 64 112 71.2 112 80C112 88.8 104.8 96 96 96Z" fill="white"/>
  <path d="M96 36C85.5 36 77 44.5 77 55V78C77 88.5 85.5 97 96 97C106.5 97 115 88.5 115 78V55C115 44.5 106.5 36 96 36ZM96 87C91.6 87 88 83.4 88 79V55C88 50.6 91.6 47 96 47C100.4 47 104 50.6 104 55V79C104 83.4 100.4 87 96 87Z" fill="white"/>
  <rect x="88" y="120" width="16" height="32" rx="8" fill="white" opacity="0.8"/>
</svg>